<?xml version="1.0" encoding="utf-8"?>
<!-- Generator: Adobe Illustrator 27.3.1, SVG Export Plug-In . SVG Version: 6.00 Build 0)  -->
<svg version="1.1" id="Camada_1" xmlns="http://www.w3.org/2000/svg" xmlns:xlink="http://www.w3.org/1999/xlink" x="0px" y="0px"
	 viewBox="0 0 1668.3 642.1" style="enable-background:new 0 0 1668.3 642.1;" xml:space="preserve">
<style type="text/css">
	.st0{fill:#211915;}
	.st1{fill:#D1DD00;}
</style>
<g id="Camada_3">
</g>
<g id="Camada_1_00000059288475722719870970000000385464550976356997_">
	<path class="st0" d="M259.6,123.8c-11.1,41.4-24,81.1-38.9,119c-14.9,38-29.3,72-43.1,102h-35.7c-13.9-30-28.3-64-43.2-102
		c-14.9-38-27.8-77.6-38.9-119h42.5c3.4,13.9,7.4,28.7,12.1,44.4c4.7,15.7,9.6,31.3,14.9,46.8c5.2,15.4,10.6,30.4,15.9,44.9
		c5.4,14.5,10.5,27.4,15.3,38.7c4.8-11.3,9.9-24.2,15.3-38.7c5.4-14.4,10.7-29.4,15.9-44.9c5.2-15.4,10.2-31,14.9-46.8
		c4.7-15.7,8.7-30.5,12.1-44.4C218.9,123.8,259.6,123.8,259.6,123.8z"/>
	<path class="st0" d="M340,344.9h-39.5V123.5H340V344.9z"/>
	<path class="st0" d="M459.5,316.4c16.2,0,28.1-2.1,35.9-6.4c7.8-4.2,11.7-11,11.7-20.4c0-9.6-3.8-17.3-11.5-23
		c-7.6-5.7-20.3-12.1-37.8-19.1c-8.5-3.4-16.7-6.9-24.5-10.4c-7.8-3.5-14.5-7.7-20.2-12.5c-5.7-4.8-10.2-10.6-13.6-17.4
		c-3.4-6.8-5.1-15.2-5.1-25.1c0-19.6,7.2-35.1,21.7-46.6c14.5-11.5,34.1-17.2,59.1-17.2c6.2,0,12.5,0.4,18.7,1.1
		c6.2,0.7,12,1.6,17.4,2.6c5.4,1,10.1,2.1,14.2,3.2c4.1,1.1,7.3,2.1,9.6,3l-7.2,34c-4.2-2.3-10.9-4.6-20-7c-9.1-2.4-20-3.6-32.7-3.6
		c-11.1,0-20.7,2.2-28.9,6.6S434,169.3,434,178.6c0,4.8,0.9,9.1,2.8,12.8s4.7,7,8.5,10c3.8,3,8.6,5.7,14.2,8.3
		c5.7,2.6,12.5,5.2,20.4,8.1c10.5,4,19.8,7.9,28.1,11.7c8.2,3.8,15.2,8.3,21.1,13.4s10.3,11.3,13.4,18.5c3.1,7.2,4.7,16.1,4.7,26.6
		c0,20.4-7.6,35.9-22.8,46.3c-15.2,10.5-36.8,15.7-64.8,15.7c-19.6,0-34.9-1.6-45.9-4.9c-11-3.3-18.6-5.7-22.5-7.4l7.2-34
		c4.5,1.7,11.8,4.2,21.7,7.6C429.9,314.7,443,316.4,459.5,316.4z"/>
	<path class="st0" d="M773.7,338.5c-9.1,2.3-21,4.7-35.9,7.2c-14.9,2.5-32.1,3.8-51.7,3.8c-17,0-31.3-2.5-42.9-7.4
		c-11.6-5-21-12-28.1-21c-7.1-9.1-12.2-19.8-15.3-32.1c-3.1-12.3-4.7-26-4.7-41V123.8h39.5v115.7c0,26.9,4.2,46.2,12.8,57.8
		c8.5,11.6,22.8,17.4,42.9,17.4c4.2,0,8.6-0.1,13.2-0.4c4.5-0.3,8.8-0.6,12.8-1.1c4-0.4,7.6-0.9,10.8-1.3c3.3-0.4,5.6-0.9,7-1.5
		V123.8h39.5L773.7,338.5L773.7,338.5z"/>
	<path class="st0" d="M913.1,118.3c15.9,0,29.3,2.1,40.2,6.2c10.9,4.1,19.7,9.9,26.4,17.4c6.7,7.5,11.4,16.4,14.2,26.8
		c2.8,10.4,4.2,21.8,4.2,34.2v138.2c-3.4,0.6-8.2,1.3-14.2,2.3c-6.1,1-13,1.9-20.6,2.8c-7.7,0.9-15.9,1.6-24.9,2.3
		c-8.9,0.7-17.8,1.1-26.6,1.1c-12.5,0-24-1.3-34.4-3.8c-10.5-2.6-19.6-6.6-27.2-12.1c-7.7-5.5-13.6-12.8-17.9-21.9s-6.4-20-6.4-32.8
		c0-12.2,2.5-22.7,7.4-31.5c5-8.8,11.7-15.9,20.2-21.3c8.5-5.4,18.4-9.4,29.8-11.9c11.3-2.6,23.2-3.8,35.7-3.8c4,0,8.1,0.2,12.3,0.6
		c4.2,0.4,8.3,1,12.1,1.7c3.8,0.7,7.2,1.3,10,1.9c2.8,0.6,4.8,1,6,1.3V205c0-6.5-0.7-13-2.1-19.4c-1.4-6.4-4-12-7.7-17
		c-3.7-4.9-8.7-8.9-15.1-11.9c-6.4-3-14.7-4.5-24.9-4.5c-13,0-24.5,0.9-34.2,2.8c-9.8,1.9-17.1,3.8-21.9,5.7l-4.7-32.7
		c5.1-2.3,13.6-4.5,25.5-6.6C886.3,119.3,899.2,118.3,913.1,118.3z M916.5,316.4c9.4,0,17.6-0.2,24.9-0.6c7.2-0.4,13.2-1.2,18.1-2.3
		v-65.9c-2.8-1.4-7.4-2.6-13.8-3.6c-6.4-1-14.1-1.5-23.2-1.5c-6,0-12.3,0.4-18.9,1.3c-6.7,0.9-12.8,2.6-18.3,5.3
		c-5.5,2.7-10.1,6.4-13.8,11.1c-3.7,4.7-5.5,10.8-5.5,18.5c0,14.2,4.5,24,13.6,29.5C888.6,313.6,900.9,316.4,916.5,316.4z"/>
	<path class="st0" d="M1129.9,349.1c-24.4-0.6-41.7-5.8-51.9-15.7c-10.2-9.9-15.3-25.4-15.3-46.3V69.8h39.5v210.9
		c0,6.5,0.6,11.9,1.7,16.2s3,7.6,5.5,10.2c2.6,2.5,5.9,4.5,10.2,5.7c4.2,1.3,9.5,2.3,15.7,3.2L1129.9,349.1z"/>
	<path class="st1" d="M1327.7,310.4c-1.4,0.6-3.8,1.1-7,1.5c-3.3,0.4-6.9,0.9-10.9,1.3c-4,0.4-8.2,0.8-12.8,1.1
		c-4.6,0.3-8.9,0.4-13.2,0.4c-20.2,0-34.5-5.8-43-17.5c-8.5-11.6-12.8-30.9-12.8-57.9V123.5h-39.6v124.3c0,15.1,1.6,28.7,4.7,41.1
		c3.1,12.4,8.2,23.1,15.3,32.1c7.1,9.1,16.5,16.1,28.1,21.1c11.6,5,26,7.5,43,7.5c19.6,0,36.8-1.3,51.7-3.8c14.9-2.5,26.9-5,36-7.2
		v-215h-39.6L1327.7,310.4L1327.7,310.4z"/>
	<path class="st1" d="M1619,184c-5.3-14.3-12.7-26.5-22.4-36.4c-9.7-9.9-21.3-17.6-34.9-23c-13.6-5.4-28.9-8.1-46-8.1
		c-18.4,0-34.7,1.3-48.8,4.1c-14.1,2.7-25.8,5.2-35.1,7.4v275.3h39.6v-70.5c4.8,3.1,12.1,6.4,21.9,9.8c9.8,3.4,21.1,5.1,33.8,5.1
		c15.9,0,30-2.8,42.4-8.5c12.3-5.7,22.8-13.6,31.3-23.8c8.5-10.2,15-22.4,19.4-36.6c4.4-14.2,6.6-29.7,6.6-46.4
		C1626.9,214.4,1624.3,198.3,1619,184z M1582.2,264c-2.3,9.8-6,18.3-11.1,25.5c-5.1,7.2-11.7,12.9-19.8,17
		c-8.1,4.1-17.8,6.2-29.2,6.2c-10.8,0-20.7-1.8-29.8-5.5c-9.1-3.7-16-7.5-20.9-11.5V156.1c4-1.1,9.3-2.1,16-3
		c6.7-0.9,16-1.3,27.9-1.3c21.3,0,38.3,6.9,51.1,20.9c12.8,13.9,19.2,33.8,19.2,59.6C1585.6,243.7,1584.5,254.2,1582.2,264z"/>
	<circle class="st0" cx="320.2" cy="89.5" r="19.8"/>
	<g>
		<path class="st0" d="M1025.2,505.4h-8l-7.2,44.2c-0.7,3.8-6.4,2.9-5.8-0.9l7-43.2h-19l7,43.2c0.6,3.8-5.1,4.8-5.8,0.9l-7.2-44.2
			h-8c-3.9,0-3.9-5.8,0-5.8h7.1l-0.9-5.9c-0.7-3.8,5.1-4.8,5.7-0.9l1.1,6.8h20.9l1.1-6.8c0.6-3.8,6.4-2.9,5.8,0.9l-0.9,5.9h7.1
			C1029.1,499.6,1029.1,505.4,1025.2,505.4z"/>
		<path class="st0" d="M1047.6,496.6c0-38.4-33.2-46.4-44.3-46.4h-3.2c-11.2,0-46.9,7.7-46.9,46.4c0.4,9.1,3.8,23.7,17.1,37.6
			c3.9,4.6,4.5,9.8,4.5,14.6l0.1,3.5c0.1,3.7,0.8,8.1,6,8.7l1.2,0v3.4l-1.3-0.2c-4.3-0.7-5.3,5.8-1,6.4l2.3,0.4v6.1l-1.3-0.2
			c-4.3-0.7-5.3,5.8-1,6.5l2.3,0.4v4.9c0,5.8,4.7,10.5,10.6,10.5h3.2c1,2.2,3.3,3.8,5.9,3.8c2.6,0,4.9-1.5,5.9-3.8h3.2
			c5.4,0,9.9-4.1,10.5-9.4l1.3,0.2c4.3,0.7,5.3-5.8,1-6.5l-2.3-0.3v-6.1l1.3,0.2c4.4,0.7,5.3-5.8,1-6.5l-2.3-0.4l0.5-10
			c7.1,0.6,6.7-6.4,6.7-11c0-4.7,0.4-10.1,4.6-15C1044.2,522.5,1047,511.1,1047.6,496.6z M1010.8,592.4h-18.1c-2.2,0-4-1.8-4-4v-3.9
			l26.1,3.9C1014.7,590.7,1012.9,592.4,1010.8,592.4z M1014.8,582l-26.1-4v-6.1l26.1,4V582z M1014.8,569.2l-26.1-4v-4.5l26.1-0.4
			V569.2z M1028.3,529.7c-5.9,6.9-6.4,14.4-6.4,19.5c0,1.5,0.1,3-0.1,4.5c-4.9,0-34.9,0.5-40.2,0.6c-0.1-0.7-0.2-1.4-0.2-2.3l0-3.4
			c-0.1-5.1-0.7-12.4-6.2-18.8c-12.1-12.5-15.1-25.6-15.4-33.5c0-32.8,30-39.6,40.3-39.6h3.2c9.7,0,37.7,6.9,37.7,39.8
			C1040.4,510,1037.9,519.6,1028.3,529.7z"/>
	</g>
	<g>
		<path class="st0" d="M807.3,549.6c0,3.8-3.1,6.9-7,6.9s-7-3.1-7-6.9c0-3.8,3.1-7,7-7C804.1,542.6,807.3,545.7,807.3,549.6z"/>
		<path class="st0" d="M793.8,525.2v-38.4c0-4.6,2.9-8.3,6.5-8.3c3.6,0,6.5,3.7,6.5,8.3v38.4c0,4.6-2.9,8.3-6.5,8.3
			C796.7,533.4,793.8,529.7,793.8,525.2z"/>
		<path class="st0" d="M800.3,459.5c-40.8,0-75.4,25.2-75.4,58c0,17.5,10,33,25.4,43.5l-10.8,27.8c-1.5,3.9,2.1,6.4,5.2,3.6
			l24.5-21.9c9.5,3.3,20,5.1,31,5.1c40.8,0,75.4-25.2,75.4-58C875.7,484.7,841,459.5,800.3,459.5z M800.3,568.9
			c-11,0-21.4-1.9-30.6-5.4c-1.9-0.9-2.8,0.2-3.3,0.7l-15.7,14.1c1-2.6,4-10,5.9-15.1c1.2-3,2.2-4.8-0.4-6.4
			c-15.3-9.6-24.6-23.8-24.6-39.4c0-27.7,29.9-51.4,68.8-51.4c38.9,0,68.8,23.8,68.8,51.4C869.1,545.1,839.2,568.9,800.3,568.9z"/>
	</g>
	<g>
		<path class="st0" d="M1590.6,517l36.3-8.7l-30.3-24.9l-3.3,4l-1.7-1.4l3.3-4l-30.4-24.9l-1.4,37.3l-7.8,9.6l-2.2-0.8
			c-1-0.4-1.9-0.5-2.9-0.5c-3.4,0-6,2.2-6.4,5.4c-0.3,2.3,0.6,4.7,2.3,6.5l-1.9-0.7c-1-0.3-1.9-0.5-2.9-0.5c-3.3,0-6,2.2-6.4,5.4
			c-0.3,2.4,0.7,4.9,2.6,6.7l-1.5,1.9l-2.2-0.8c-1-0.4-1.9-0.5-2.9-0.5c-3.3,0-5.9,2.2-6.3,5.4c-0.3,2.4,0.7,4.9,2.6,6.7l-1.1,1.3
			l-2.2-0.8c-0.9-0.3-1.9-0.5-2.9-0.5c-3.4,0-6,2.2-6.4,5.4c-0.3,2.4,0.7,4.9,2.6,6.8l-0.5,0.6l-2.2-0.8c-1-0.4-1.9-0.5-2.9-0.5
			c-3.3,0-6,2.2-6.4,5.4c-0.3,2.4,0.7,4.9,2.6,6.7l-1.9,2.4l-0.9,29.2l24.3-5.7c1.1,0.9,2.4,1.4,3.9,1.4c1.3,0,2.5-0.4,3.7-0.8
			c1.7-0.6,3-1.8,3.6-3.5c0.7-1.8,0.4-4-0.7-6l2.6-3.1l1.4,0.5c0.9,0.3,1.9,0.5,2.9,0.5c3.4,0,6-2.2,6.4-5.4
			c0.3-2.1-0.5-4.4-2.1-6.1l0.7-0.9l1.4,0.5c1,0.4,1.9,0.5,2.9,0.5c3.3,0,5.9-2.2,6.4-5.4c0.3-2.1-0.5-4.4-2-6.1l1.3-1.6l1.4,0.5
			c1,0.3,1.9,0.5,2.9,0.5c3.3,0,6-2.2,6.4-5.4c0.1-1.2,0-2.4-0.5-3.6l0.1-0.2l-0.2-0.1c-0.3-0.8-0.8-1.6-1.4-2.3l1.8-2.2l1.4,0.5
			c1,0.4,1.9,0.5,2.9,0.5c3.3,0,5.9-2.2,6.4-5.4c0.3-2.2-0.5-4.4-2.1-6.1l0.2-0.2l1.4,0.5c0.9,0.4,1.9,0.5,2.9,0.5
			c3.3,0,6-2.2,6.4-5.4c0.3-2.1-0.5-4.4-2.1-6.1L1590.6,517z M1531.9,578l2.1,3.5l0.3,0.5l-0.7,0.2l-1.4-2.2l-20.2,4.7l0.6-18.2
			l3.8-4.6l22.4,7.7L1531.9,578z M1543.4,564l-22.4-7.7l4.7-5.8l22.4,7.7L1543.4,564z M1552.7,552.8l-22.4-7.7l5.5-6.7l22.4,7.7
			L1552.7,552.8z M1562.6,540.6l-22.4-7.7l6.3-7.7l22.4,7.7L1562.6,540.6z M1573.4,527.4l-22.4-7.7l4.1-5l22.4,7.7L1573.4,527.4z
			 M1582,516.9l-22.4-7.7l7.2-8.8l17.2,14.1L1582,516.9z M1589.6,510.4l-19.8-16.2l0.9-23.4l14.8,12.1l-3.3,4l12,9.9l3.3-4
			l14.8,12.2L1589.6,510.4z"/>
	</g>
	<g>
		<path class="st0" d="M1374.6,471.3c-1.1-1.7-8.6-13.7-10.3-16.3l-0.3-0.5c-1.3-2.1-3.6-3.3-6.1-3.3h-0.1c-2.5,0-4.8,1.3-6.1,3.3
			l-0.1,0.1c-1,1.5-9.3,14.9-10.5,16.7c-2.2,3.3-3.3,6.7-3.3,10.3c0,10.3,9,18.6,20.1,18.6c11.1,0,20.1-8.4,20.1-18.6
			C1377.8,478.1,1376.7,474.6,1374.6,471.3z M1357.8,493.6c-7.4,0-13.4-5.4-13.4-12c0-2.2,0.7-4.4,2.2-6.6c0.1-0.1,9.3-14.7,10.7-17
			l0.4-0.2l0.1,0l0.1,0l0.4,0.2h0c0.3,0.4,0.7,1.1,1.5,2.4c0.9,1.4,2.1,3.4,3.4,5.4c2.3,3.6,5.2,8.2,5.9,9.3
			c1.4,2.2,2.2,4.4,2.2,6.6C1371.2,488.2,1365.2,493.6,1357.8,493.6z"/>
		<path class="st0" d="M1430.2,503.9c-1.9-2.8-14.7-23.2-16.9-26.8l-0.3-0.5c-1.7-2.6-4.8-4.4-8.1-4.4h-0.2c-3.3,0-6.4,1.7-8.1,4.4
			l-0.1,0.2l0,0c-1.3,2.1-15.2,24.2-17.1,27.1l0,0c-3.3,5-4.9,10.2-4.9,15.4c0,15.5,13.6,28.1,30.4,28.1h0
			c16.7,0,30.3-12.6,30.3-28.1C1435.2,514,1433.5,508.8,1430.2,503.9z M1404.8,540.7c-13.1,0-23.7-9.6-23.7-21.4
			c0-3.9,1.3-7.9,3.8-11.8c1-1.5,15.5-24.4,17.3-27.4h0c0.4-0.8,1.3-1.2,2.3-1.3h0.4c1,0.1,1.9,0.6,2.4,1.3l0,0
			c0.3,0.6,1.1,1.7,2.4,3.8c1.5,2.3,3.4,5.5,5.4,8.7c3,4.8,8.3,13.1,9.4,14.9c2.6,3.9,3.8,7.8,3.8,11.8
			C1428.5,531.1,1417.9,540.7,1404.8,540.7z"/>
		<path class="st0" d="M1375.3,550.4c-2.4-3.6-19.5-30.9-20.7-32.7l-0.1-0.1c-1.9-3-5.5-5-9.2-5l-0.1,0l-0.1,0c-3.8,0-7.3,1.9-9.2,5
			c-0.1,0.2-0.4,0.7-1.1,1.7c-11.6,18.5-18.2,29-19.7,31.2c-3.9,5.9-5.8,12-5.8,18.2c0,18.3,16.1,33.1,35.9,33.1h0
			c19.8,0,35.9-14.9,35.9-33.1C1381.1,562.5,1379.2,556.3,1375.3,550.4z M1345.2,595.1c-16.1,0-29.2-11.9-29.2-26.5
			c0-4.9,1.6-9.8,4.7-14.5c1.5-2.2,8.1-12.7,19.8-31.3c0.5-0.8,0.9-1.3,1-1.6l0.1-0.1c0.7-1.1,2.1-1.8,3.5-1.9h0.3
			c1.5,0,2.8,0.8,3.5,1.9c1.8,3,19.3,30.7,20.8,33c3.1,4.7,4.7,9.6,4.7,14.5C1374.5,583.2,1361.3,595.1,1345.2,595.1z"/>
	</g>
	<g>
		<path class="st0" d="M1208.4,457.1c-0.7-0.3-1.6-0.6-2.8-0.8c-3.1-1-10-3.1-15.7-4.9l-0.8-0.1h-22.3l-0.8,0.1l-18.3,5.6
			c-1.4,0.3-2.2,1.2-2.2,3.1v81.2l0.4,1.4l28.9,57c1.3,2.6,3.8,2.6,5.2,0l29.9-57.3l0.3-1.2v-81.2
			C1210.3,458.5,1209.6,457.5,1208.4,457.1z M1169.8,468.5h16.2v74.6h-16.2V468.5z M1152.1,464.5l11.2,3.2V542l-11.2-3.2V464.5z
			 M1189.6,568.9h-23.8l-11.1-21.8c4.8,1.3,9.8,2.1,11,2.4l0.9,0.1h22.9l0.9-0.1c1.2-0.3,5.9-1.1,10.4-2.3L1189.6,568.9z
			 M1203.7,538.8l-11.2,3.3v-74.5l11.2-3.2V538.8z"/>
	</g>
</g>
</svg>
