<?xml version="1.0" encoding="utf-8"?>
<!-- Generator: Adobe Illustrator 27.4.0, SVG Export Plug-In . SVG Version: 6.00 Build 0)  -->
<svg version="1.1" id="Camada_1" xmlns="http://www.w3.org/2000/svg" xmlns:xlink="http://www.w3.org/1999/xlink" x="0px" y="0px"
	 viewBox="0 0 1490.1 153.1" style="enable-background:new 0 0 1490.1 153.1;" xml:space="preserve">
<style type="text/css">
	.st0{fill:#C3CD2D;}
</style>
<g id="Camada_3">
</g>
<g id="Camada_1_00000176031771143409917940000016440830842773659057_">
	<g>
		<path class="st0" d="M455.8,55.4h-8l-7.2,44.2c-0.7,3.8-6.4,2.9-5.8-0.9l7-43.2h-19l7,43.2c0.6,3.8-5.1,4.8-5.8,0.9L417,55.4h-8
			c-3.9,0-3.9-5.8,0-5.8h7.1l-0.9-5.9c-0.7-3.8,5.1-4.8,5.7-0.9l1.1,6.8h20.9l1.1-6.8c0.6-3.8,6.4-2.9,5.8,0.9l-0.9,5.9h7.1
			C459.8,49.5,459.8,55.4,455.8,55.4z"/>
		<path class="st0" d="M478.3,46.5C478.3,8.1,445,0.1,434,0.1h-3.2c-11.2,0-46.9,7.7-46.9,46.4c0.4,9.1,3.8,23.7,17.1,37.6
			c3.9,4.6,4.5,9.8,4.5,14.6l0.1,3.5c0.1,3.7,0.8,8.1,6,8.7l1.2,0v3.4l-1.3-0.2c-4.3-0.7-5.3,5.8-1,6.4l2.3,0.4v6.1l-1.3-0.2
			c-4.3-0.7-5.3,5.8-1,6.5l2.3,0.4v4.9c0,5.8,4.7,10.5,10.6,10.5h3.2c1,2.2,3.3,3.8,5.9,3.8c2.6,0,4.9-1.5,5.9-3.8h3.2
			c5.4,0,9.9-4.1,10.5-9.4l1.3,0.2c4.3,0.7,5.3-5.8,1-6.5l-2.3-0.3v-6.1l1.3,0.2c4.4,0.7,5.3-5.8,1-6.5l-2.3-0.4l0.5-10
			c7.1,0.6,6.7-6.4,6.7-11c0-4.7,0.4-10.1,4.6-15C474.9,72.5,477.6,61,478.3,46.5z M441.4,142.4h-18.1c-2.2,0-4-1.8-4-4v-3.9
			l26.1,3.9C445.4,140.7,443.6,142.4,441.4,142.4z M445.4,131.9l-26.1-4v-6.1l26.1,4V131.9z M445.4,119.2l-26.1-4v-4.5l26.1-0.4
			V119.2z M459,79.7c-5.9,6.9-6.4,14.4-6.4,19.5c0,1.5,0.1,3-0.1,4.5c-4.9,0-34.9,0.5-40.2,0.6c-0.1-0.7-0.2-1.4-0.2-2.3l0-3.4
			c-0.1-5.1-0.7-12.4-6.2-18.8c-12.1-12.5-15.1-25.6-15.4-33.5c0-32.8,30-39.6,40.3-39.6h3.2c9.7,0,37.7,6.9,37.7,39.8
			C471.1,59.9,468.6,69.6,459,79.7z"/>
	</g>
	<g>
		<path class="st0" d="M82.4,99.6c0,3.8-3.1,6.9-7,6.9s-7-3.1-7-6.9c0-3.8,3.1-7,7-7C79.2,92.6,82.4,95.7,82.4,99.6z"/>
		<path class="st0" d="M68.9,75.1V36.7c0-4.6,2.9-8.3,6.5-8.3c3.6,0,6.5,3.7,6.5,8.3v38.4c0,4.6-2.9,8.3-6.5,8.3
			C71.8,83.4,68.9,79.7,68.9,75.1z"/>
		<path class="st0" d="M75.4,9.4C34.6,9.4,0,34.6,0,67.4c0,17.5,10,33,25.4,43.5l-10.8,27.8c-1.5,3.9,2.1,6.4,5.2,3.6l24.5-21.9
			c9.5,3.3,20,5.1,31,5.1c40.8,0,75.4-25.2,75.4-58C150.8,34.6,116.2,9.4,75.4,9.4z M75.4,118.9c-11,0-21.4-1.9-30.6-5.4
			c-1.9-0.9-2.8,0.2-3.3,0.7l-15.7,14.1c1-2.6,4-10,5.9-15.1c1.2-3,2.2-4.8-0.4-6.4C15.9,97.2,6.6,83,6.6,67.4
			C6.6,39.8,36.5,16,75.4,16c38.9,0,68.8,23.8,68.8,51.4C144.2,95.1,114.3,118.9,75.4,118.9z"/>
	</g>
	<g>
		<path class="st0" d="M1453.8,67l36.3-8.7l-30.3-24.9l-3.3,4l-1.7-1.4l3.3-4l-30.4-24.9l-1.4,37.3l-7.8,9.6l-2.2-0.8
			c-1-0.4-1.9-0.5-2.9-0.5c-3.4,0-6,2.2-6.4,5.4c-0.3,2.3,0.6,4.7,2.3,6.5l-1.9-0.7c-1-0.3-1.9-0.5-2.9-0.5c-3.3,0-6,2.2-6.4,5.4
			c-0.3,2.4,0.7,4.9,2.6,6.7l-1.5,1.9l-2.2-0.8c-1-0.4-1.9-0.5-2.9-0.5c-3.3,0-5.9,2.2-6.3,5.4c-0.3,2.4,0.7,4.9,2.6,6.7l-1.1,1.3
			l-2.2-0.8c-0.9-0.3-1.9-0.5-2.9-0.5c-3.4,0-6,2.2-6.4,5.4c-0.3,2.4,0.7,4.9,2.6,6.8l-0.5,0.6l-2.2-0.8c-1-0.4-1.9-0.5-2.9-0.5
			c-3.3,0-6,2.2-6.4,5.4c-0.3,2.4,0.7,4.9,2.6,6.7l-1.9,2.4l-0.9,29.2l24.3-5.7c1.1,0.9,2.4,1.4,3.9,1.4c1.3,0,2.5-0.4,3.7-0.8
			c1.7-0.6,3-1.8,3.6-3.5c0.7-1.8,0.4-4-0.7-6l2.6-3.1l1.4,0.5c0.9,0.3,1.9,0.5,2.9,0.5c3.4,0,6-2.2,6.4-5.4
			c0.3-2.1-0.5-4.4-2.1-6.1l0.7-0.9l1.4,0.5c1,0.4,1.9,0.5,2.9,0.5c3.3,0,5.9-2.2,6.4-5.4c0.3-2.1-0.5-4.4-2-6.1l1.3-1.6l1.4,0.5
			c1,0.3,1.9,0.5,2.9,0.5c3.3,0,6-2.2,6.4-5.4c0.1-1.2,0-2.4-0.5-3.6l0.1-0.2l-0.2-0.1c-0.3-0.8-0.8-1.6-1.4-2.3l1.8-2.2l1.4,0.5
			c1,0.4,1.9,0.5,2.9,0.5c3.3,0,5.9-2.2,6.4-5.4c0.3-2.2-0.5-4.4-2.1-6.1l0.2-0.2l1.4,0.5c0.9,0.4,1.9,0.5,2.9,0.5
			c3.3,0,6-2.2,6.4-5.4c0.3-2.1-0.5-4.4-2.1-6.1L1453.8,67z M1395.1,128l2.1,3.5l0.3,0.5l-0.7,0.2l-1.4-2.2l-20.2,4.7l0.6-18.2
			l3.8-4.6l22.4,7.7L1395.1,128z M1406.6,114l-22.4-7.7l4.7-5.8l22.4,7.7L1406.6,114z M1415.8,102.7l-22.4-7.7l5.5-6.7l22.4,7.7
			L1415.8,102.7z M1425.8,90.6l-22.4-7.7l6.3-7.7l22.4,7.7L1425.8,90.6z M1436.6,77.4l-22.4-7.7l4.1-5l22.4,7.7L1436.6,77.4z
			 M1445.2,66.9l-22.4-7.7l7.2-8.8l17.2,14.1L1445.2,66.9z M1452.7,60.4L1433,44.2l0.9-23.4l14.8,12.1l-3.3,4l12,9.9l3.3-4
			l14.8,12.2L1452.7,60.4z"/>
	</g>
	<g>
		<path class="st0" d="M1074.6,21.3c-1.1-1.7-8.6-13.7-10.3-16.3l-0.3-0.5c-1.3-2.1-3.6-3.3-6.1-3.3h-0.1c-2.5,0-4.8,1.3-6.1,3.3
			l-0.1,0.1c-1,1.5-9.3,14.9-10.5,16.7c-2.2,3.3-3.3,6.7-3.3,10.3c0,10.3,9,18.6,20.1,18.6c11.1,0,20.1-8.4,20.1-18.6
			C1077.8,28.1,1076.7,24.5,1074.6,21.3z M1057.8,43.5c-7.4,0-13.4-5.4-13.4-12c0-2.2,0.7-4.4,2.2-6.6c0.1-0.1,9.3-14.7,10.7-17
			l0.4-0.2l0.1,0l0.1,0l0.4,0.2h0c0.3,0.4,0.7,1.1,1.5,2.4c0.9,1.4,2.1,3.4,3.4,5.4c2.3,3.6,5.2,8.2,5.9,9.3
			c1.4,2.2,2.2,4.4,2.2,6.6C1071.2,38.2,1065.1,43.5,1057.8,43.5z"/>
		<path class="st0" d="M1130.2,53.8c-1.9-2.8-14.7-23.2-16.9-26.8l-0.3-0.5c-1.7-2.6-4.8-4.4-8.1-4.4h-0.2c-3.3,0-6.4,1.7-8.1,4.4
			l-0.1,0.2l0,0c-1.3,2.1-15.2,24.2-17.1,27.1l0,0c-3.3,5-4.9,10.2-4.9,15.4c0,15.5,13.6,28.1,30.4,28.1h0
			c16.7,0,30.3-12.6,30.3-28.1C1135.2,64,1133.5,58.8,1130.2,53.8z M1104.8,90.7c-13.1,0-23.7-9.6-23.7-21.4c0-3.9,1.3-7.9,3.8-11.8
			c1-1.5,15.5-24.4,17.3-27.4h0c0.4-0.8,1.3-1.2,2.3-1.3h0.4c1,0.1,1.9,0.6,2.4,1.3l0,0c0.3,0.6,1.1,1.7,2.4,3.8
			c1.5,2.3,3.4,5.5,5.4,8.7c3,4.8,8.3,13.1,9.4,14.9c2.6,3.9,3.8,7.8,3.8,11.8C1128.5,81.1,1117.9,90.7,1104.8,90.7z"/>
		<path class="st0" d="M1075.3,100.4c-2.4-3.6-19.5-30.9-20.7-32.7l-0.1-0.1c-1.9-3-5.5-5-9.2-5l-0.1,0l-0.1,0c-3.8,0-7.3,1.9-9.2,5
			c-0.1,0.2-0.4,0.7-1.1,1.7c-11.6,18.5-18.2,29-19.7,31.2c-3.9,5.9-5.8,12-5.8,18.2c0,18.3,16.1,33.1,35.9,33.1h0
			c19.8,0,35.9-14.9,35.9-33.1C1081.1,112.4,1079.1,106.3,1075.3,100.4z M1045.2,145.1c-16.1,0-29.2-11.9-29.2-26.5
			c0-4.9,1.6-9.8,4.7-14.5c1.5-2.2,8.1-12.7,19.8-31.3c0.5-0.8,0.9-1.3,1-1.6l0.1-0.1c0.7-1.1,2.1-1.8,3.5-1.9h0.3
			c1.5,0,2.8,0.8,3.5,1.9c1.8,3,19.3,30.7,20.8,33c3.1,4.7,4.7,9.6,4.7,14.5C1074.5,133.2,1061.3,145.1,1045.2,145.1z"/>
	</g>
	<g>
		<path class="st0" d="M774.3,7.1c-0.7-0.3-1.6-0.6-2.8-0.8c-3.1-1-10-3.1-15.7-4.9L755,1.2h-22.3l-0.8,0.1L713.6,7
			c-1.4,0.3-2.2,1.2-2.2,3.1v81.1l0.4,1.4l28.9,57c1.3,2.6,3.8,2.6,5.2,0l29.9-57.3l0.3-1.2V10.1C776.2,8.4,775.5,7.5,774.3,7.1z
			 M735.7,18.5h16.2v74.6h-16.2V18.5z M718,14.4l11.2,3.2V92L718,88.8V14.4z M755.5,118.9h-23.8l-11.1-21.8c4.8,1.3,9.8,2.1,11,2.4
			l0.9,0.1h22.9l0.9-0.1c1.2-0.3,5.9-1.1,10.4-2.3L755.5,118.9z M769.6,88.8l-11.2,3.3V17.6l11.2-3.2V88.8z"/>
	</g>
</g>
</svg>
